<svg width="35" height="38" viewBox="0 0 35 38" fill="none" xmlns="http://www.w3.org/2000/svg">
<g filter="url(#filter0_di)">
<path d="M14.4494 8.98694C14.4974 9.29291 14.4821 9.60582 14.4047 9.90534C14.3273 10.2049 14.1894 10.4843 14 10.7256C15.1718 12.7831 16.7838 14.5398 18.7141 15.8629C19.0392 16.0888 19.3739 16.2852 19.6703 16.4817C19.974 16.1368 20.3747 15.8976 20.8168 15.7972C21.2589 15.6969 21.7204 15.7404 22.1373 15.9218C23.6278 13.8938 24.6452 11.5414 25.1111 9.04587C21.6647 7.79548 17.9087 7.77471 14.4494 8.98694Z" fill="white"/>
<path d="M17.3301 0.902345C13.7948 0.902345 10.4042 2.4175 7.90431 5.11449C5.40442 7.81147 4 11.4694 4 15.2835C4 15.7457 4 16.1977 4.06665 16.6497C4.31201 19.4235 5.29899 22.0606 6.90761 24.2405C8.51622 26.4205 10.6772 28.0493 13.1278 28.9291C15.5785 29.8088 18.2132 29.9015 20.7118 29.196C23.2104 28.4905 25.4652 27.0171 27.2021 24.9549C28.939 22.8927 30.0832 20.3306 30.4956 17.58C30.908 14.8293 30.5709 12.0087 29.5252 9.46091C28.4795 6.91313 26.7703 4.74794 24.6053 3.22855C22.4404 1.70917 19.9129 0.901016 17.3301 0.902345ZM27.1849 20.5121C25.7969 20.5069 24.415 20.3136 23.0716 19.9368C22.7525 20.4048 22.2841 20.7288 21.7566 20.8464C21.2292 20.964 20.6801 20.8669 20.2152 20.5737C18.2577 22.2731 15.9847 23.4992 13.5501 24.169C13.4762 24.5918 13.2986 24.9854 13.0356 25.3088C12.7727 25.6322 12.4341 25.8736 12.0552 26.0077L11.7791 26.0694C10.5473 25.3346 9.45276 24.3593 8.55129 23.1931L9.17971 23.1931C9.27077 22.704 9.50124 22.2578 9.83889 21.9169C10.1765 21.576 10.6045 21.3574 11.0629 21.2918C11.5213 21.2261 11.9873 21.3167 12.3957 21.5508C12.8041 21.7849 13.1345 22.1508 13.3406 22.5973C15.4991 21.9827 17.5157 20.8913 19.263 19.3924C19.1105 19.0145 19.0515 18.6004 19.0916 18.1905C18.6917 17.944 18.2918 17.6872 17.9014 17.4098C15.8271 15.9261 14.0867 13.9606 12.8074 11.6574C12.4251 11.7706 12.0215 11.7703 11.6394 11.6563C11.2572 11.5424 10.9107 11.3192 10.6365 11.0102C8.86543 12.4099 7.26578 14.046 5.87574 15.8793L5.87574 15.2938C5.88036 14.6987 5.92491 14.1048 6.00904 13.5167C7.15116 12.0046 8.49955 10.6884 10.0081 9.61321C9.95453 9.15973 10.0252 8.69924 10.2113 8.28854C10.3974 7.87785 10.6908 7.53489 11.0555 7.30196C10.9412 6.86025 10.8269 6.41854 10.7412 5.96656C10.7412 5.82275 10.7412 5.66867 10.6365 5.30914C11.0521 4.97983 11.4879 4.68125 11.941 4.41545C12.0362 5.02152 12.0743 5.33996 12.1409 5.6584C12.2076 5.97684 12.3313 6.53154 12.4456 6.96297L12.6836 6.96297C13.0917 7.06479 13.4647 7.28916 13.7596 7.61012C17.4869 6.19201 21.5479 6.16669 25.2902 7.53822L25.2902 6.51099C26.3531 7.64087 27.2006 8.98444 27.7848 10.4658C27.3214 10.1713 26.8517 9.90426 26.3756 9.66457C25.8351 12.4158 24.7324 15.0022 23.1478 17.2352C23.3525 17.6048 23.4611 18.0271 23.462 18.4576C25.0274 18.8072 26.6247 18.9623 28.2228 18.9199C28.0631 19.4576 27.869 19.9828 27.642 20.4915L27.1849 20.5121Z" fill="white"/>
</g>
<defs>
<filter id="filter0_di" x="0" y="0.902344" width="34.6667" height="36.7623" filterUnits="userSpaceOnUse" color-interpolation-filters="sRGB">
<feFlood flood-opacity="0" result="BackgroundImageFix"/>
<feColorMatrix in="SourceAlpha" type="matrix" values="0 0 0 0 0 0 0 0 0 0 0 0 0 0 0 0 0 0 127 0"/>
<feOffset dy="4"/>
<feGaussianBlur stdDeviation="2"/>
<feColorMatrix type="matrix" values="0 0 0 0 0 0 0 0 0 0 0 0 0 0 0 0 0 0 0.25 0"/>
<feBlend mode="normal" in2="BackgroundImageFix" result="effect1_dropShadow"/>
<feBlend mode="normal" in="SourceGraphic" in2="effect1_dropShadow" result="shape"/>
<feColorMatrix in="SourceAlpha" type="matrix" values="0 0 0 0 0 0 0 0 0 0 0 0 0 0 0 0 0 0 127 0" result="hardAlpha"/>
<feOffset dy="2"/>
<feGaussianBlur stdDeviation="1"/>
<feComposite in2="hardAlpha" operator="arithmetic" k2="-1" k3="1"/>
<feColorMatrix type="matrix" values="0 0 0 0 1 0 0 0 0 1 0 0 0 0 1 0 0 0 0.2 0"/>
<feBlend mode="normal" in2="shape" result="effect2_innerShadow"/>
</filter>
</defs>
</svg>
