<svg width="34" height="36" viewBox="0 0 34 36" fill="none" xmlns="http://www.w3.org/2000/svg">
<path d="M22.313 9.01246L10.3389 20.7021C9.99155 21.0296 9.71453 21.4213 9.52396 21.8544C9.33339 22.2875 9.23308 22.7533 9.22888 23.2246C9.22469 23.696 9.31669 24.1634 9.49952 24.5997C9.68236 25.0359 9.95236 25.4323 10.2938 25.7656C10.6352 26.0989 11.0412 26.3625 11.4881 26.541C11.935 26.7195 12.4138 26.8093 12.8966 26.8052C13.3794 26.8011 13.8566 26.7032 14.3002 26.5171C14.7438 26.3311 15.1451 26.0606 15.4805 25.7216L27.142 14.0319C28.4667 12.6929 29.1997 10.8995 29.1832 9.03801C29.1666 7.17649 28.4018 5.3958 27.0534 4.07945C25.705 2.76311 23.881 2.01644 21.9741 2.00027C20.0673 1.98409 18.2303 2.6997 16.8586 3.99297L5.19537 15.6808C3.14941 17.6782 2 20.3872 2 23.2119C2 26.0365 3.14941 28.7455 5.19537 30.7429C7.24133 32.7402 10.0163 33.8623 12.9097 33.8623C15.8031 33.8623 18.578 32.7402 20.624 30.7429L32 19.662" stroke="white" stroke-width="4" stroke-linecap="round" stroke-linejoin="round"/>
</svg>
