<svg width="18" height="18" viewBox="0 0 18 18" fill="none" xmlns="http://www.w3.org/2000/svg">
<path d="M5.125 0.875C4.57272 0.875 4.125 1.32272 4.125 1.875V2.5C4.125 3.05228 4.57272 3.5 5.125 3.5H12L0.707106 14.7929C0.316582 15.1834 0.316582 15.8166 0.707107 16.2071L1.79289 17.2929C2.18342 17.6834 2.81658 17.6834 3.20711 17.2929L14.5 6V12.9513C14.5 13.5222 14.9773 13.9773 15.5476 13.9501L16.1726 13.9204C16.7058 13.895 17.125 13.4553 17.125 12.9215V1.99991L17.0965 1.77175C17.0397 1.31777 16.6821 0.960191 16.2281 0.903491L16 0.875H5.125Z" fill="white"/>
</svg>
