<svg width="36" height="37" viewBox="0 0 36 37" fill="none" xmlns="http://www.w3.org/2000/svg">
<g filter="url(#filter0_d)">
<path d="M18 0C16.1615 0 14.341 0.375054 12.6424 1.10375C10.9439 1.83244 9.40052 2.9005 8.1005 4.24695C5.475 6.96623 4 10.6544 4 14.5C4 18.3456 5.475 22.0338 8.1005 24.753C9.40052 26.0995 10.9439 27.1676 12.6424 27.8963C14.341 28.6249 16.1615 29 18 29C21.713 29 25.274 27.4723 27.8995 24.753C30.525 22.0338 32 18.3456 32 14.5C32 12.5958 31.6379 10.7103 30.9343 8.95109C30.2307 7.19187 29.1995 5.5934 27.8995 4.24695C26.5995 2.9005 25.0561 1.83244 23.3576 1.10375C21.659 0.375054 19.8385 0 18 0V0ZM18 9.2655C20.2589 10.7855 22.8942 11.5963 25.588 11.6C26.68 11.6 27.73 11.4695 28.738 11.223C29.032 12.2525 29.2 13.3545 29.2 14.5C29.2 20.8945 24.174 26.1 18 26.1C13.8 26.1 10.146 23.693 8.2 20.1405L10.65 17.4V15.95C10.65 15.4693 10.8344 15.0083 11.1626 14.6684C11.4908 14.3285 11.9359 14.1375 12.4 14.1375C12.8641 14.1375 13.3092 14.3285 13.6374 14.6684C13.9656 15.0083 14.15 15.4693 14.15 15.95V17.4H18V9.2655ZM23.6 14.1375C23.1359 14.1375 22.6908 14.3285 22.3626 14.6684C22.0344 15.0083 21.85 15.4693 21.85 15.95C21.85 16.4307 22.0344 16.8917 22.3626 17.2316C22.6908 17.5715 23.1359 17.7625 23.6 17.7625C24.0641 17.7625 24.5092 17.5715 24.8374 17.2316C25.1656 16.8917 25.35 16.4307 25.35 15.95C25.35 15.4693 25.1656 15.0083 24.8374 14.6684C24.5092 14.3285 24.0641 14.1375 23.6 14.1375Z" fill="white"/>
</g>
<defs>
<filter id="filter0_d" x="0" y="0" width="36" height="37" filterUnits="userSpaceOnUse" color-interpolation-filters="sRGB">
<feFlood flood-opacity="0" result="BackgroundImageFix"/>
<feColorMatrix in="SourceAlpha" type="matrix" values="0 0 0 0 0 0 0 0 0 0 0 0 0 0 0 0 0 0 127 0"/>
<feOffset dy="4"/>
<feGaussianBlur stdDeviation="2"/>
<feColorMatrix type="matrix" values="0 0 0 0 0 0 0 0 0 0 0 0 0 0 0 0 0 0 0.25 0"/>
<feBlend mode="normal" in2="BackgroundImageFix" result="effect1_dropShadow"/>
<feBlend mode="normal" in="SourceGraphic" in2="effect1_dropShadow" result="shape"/>
</filter>
</defs>
</svg>
