<svg width="34" height="37" viewBox="0 0 34 37" fill="none" xmlns="http://www.w3.org/2000/svg">
<g filter="url(#filter0_di)">
<path d="M28.5333 0.974609L5.02222 0.974609C4.45681 0.974609 4 1.47466 4 2.0936L4 27.8304C4 28.4493 4.45681 28.9493 5.02222 28.9493L28.5333 28.9493C29.0987 28.9493 29.5556 28.4493 29.5556 27.8304L29.5556 2.0936C29.5556 1.47466 29.0987 0.974609 28.5333 0.974609ZM16.8129 15.1753L10.6796 20.8052C10.5135 20.9591 10.2611 20.8297 10.2611 20.5919L10.2611 18.3994C10.2611 18.3189 10.2962 18.2385 10.3537 18.1861L13.8612 14.962L10.3537 11.7379C10.3244 11.7125 10.3008 11.6801 10.2847 11.6431C10.2686 11.6061 10.2606 11.5655 10.2611 11.5246L10.2611 9.33206C10.2611 9.09427 10.5135 8.96489 10.6796 9.11875L16.8129 14.7452C16.9375 14.8571 16.9375 15.0634 16.8129 15.1753ZM23.2944 20.5919C23.2944 20.7458 23.1858 20.8716 23.0549 20.8716L17.1451 20.8716C17.0142 20.8716 16.9056 20.7458 16.9056 20.5919L16.9056 18.9134C16.9056 18.7595 17.0142 18.6337 17.1451 18.6337L23.0549 18.6337C23.1858 18.6337 23.2944 18.7595 23.2944 18.9134L23.2944 20.5919Z" fill="white"/>
</g>
<defs>
<filter id="filter0_di" x="0" y="0.974609" width="33.5556" height="35.9747" filterUnits="userSpaceOnUse" color-interpolation-filters="sRGB">
<feFlood flood-opacity="0" result="BackgroundImageFix"/>
<feColorMatrix in="SourceAlpha" type="matrix" values="0 0 0 0 0 0 0 0 0 0 0 0 0 0 0 0 0 0 127 0"/>
<feOffset dy="4"/>
<feGaussianBlur stdDeviation="2"/>
<feColorMatrix type="matrix" values="0 0 0 0 0 0 0 0 0 0 0 0 0 0 0 0 0 0 0.25 0"/>
<feBlend mode="normal" in2="BackgroundImageFix" result="effect1_dropShadow"/>
<feBlend mode="normal" in="SourceGraphic" in2="effect1_dropShadow" result="shape"/>
<feColorMatrix in="SourceAlpha" type="matrix" values="0 0 0 0 0 0 0 0 0 0 0 0 0 0 0 0 0 0 127 0" result="hardAlpha"/>
<feOffset dy="2"/>
<feGaussianBlur stdDeviation="1"/>
<feComposite in2="hardAlpha" operator="arithmetic" k2="-1" k3="1"/>
<feColorMatrix type="matrix" values="0 0 0 0 1 0 0 0 0 1 0 0 0 0 1 0 0 0 0.2 0"/>
<feBlend mode="normal" in2="shape" result="effect2_innerShadow"/>
</filter>
</defs>
</svg>
