<svg width="35" height="35" viewBox="0 0 35 35" fill="none" xmlns="http://www.w3.org/2000/svg">
<g filter="url(#filter0_d)">
<path d="M30.6328 23.3432L25.3748 18.0861C25.1375 17.8488 24.8158 17.717 24.4783 17.717H23.6186C25.0742 15.8557 25.9391 13.5145 25.9391 10.9677C25.9391 4.90909 21.0292 0 14.9696 0C8.90993 0 4 4.90909 4 10.9677C4 17.0263 8.90993 21.9354 14.9696 21.9354C17.5168 21.9354 19.8584 21.0706 21.72 19.6153V20.4748C21.72 20.8122 21.8519 21.1339 22.0892 21.3712L27.3472 26.6283C27.843 27.1239 28.6446 27.1239 29.135 26.6283L30.6275 25.136C31.1233 24.6404 31.1233 23.8389 30.6328 23.3432ZM14.9696 17.717C11.241 17.717 8.21906 14.7009 8.21906 10.9677C8.21906 7.23972 11.2357 4.21834 14.9696 4.21834C18.6981 4.21834 21.72 7.23445 21.72 10.9677C21.72 14.6956 18.7034 17.717 14.9696 17.717Z" fill="white"/>
</g>
<defs>
<filter id="filter0_d" x="0" y="0" width="35" height="35" filterUnits="userSpaceOnUse" color-interpolation-filters="sRGB">
<feFlood flood-opacity="0" result="BackgroundImageFix"/>
<feColorMatrix in="SourceAlpha" type="matrix" values="0 0 0 0 0 0 0 0 0 0 0 0 0 0 0 0 0 0 127 0"/>
<feOffset dy="4"/>
<feGaussianBlur stdDeviation="2"/>
<feColorMatrix type="matrix" values="0 0 0 0 0 0 0 0 0 0 0 0 0 0 0 0 0 0 0.25 0"/>
<feBlend mode="normal" in2="BackgroundImageFix" result="effect1_dropShadow"/>
<feBlend mode="normal" in="SourceGraphic" in2="effect1_dropShadow" result="shape"/>
</filter>
</defs>
</svg>
