<svg width="35" height="35" viewBox="0 0 35 35" fill="none" xmlns="http://www.w3.org/2000/svg">
<path d="M29.1667 0H5.83333C4.28624 0 2.80251 0.614582 1.70854 1.70854C0.614582 2.80251 0 4.28624 0 5.83333V29.1667C0 30.7138 0.614582 32.1975 1.70854 33.2915C2.80251 34.3854 4.28624 35 5.83333 35H29.1667C30.7138 35 32.1975 34.3854 33.2915 33.2915C34.3854 32.1975 35 30.7138 35 29.1667V5.83333C35 4.28624 34.3854 2.80251 33.2915 1.70854C32.1975 0.614582 30.7138 0 29.1667 0ZM9.72222 7.77778C10.2991 7.77778 10.863 7.94884 11.3426 8.26933C11.8223 8.58981 12.1961 9.04533 12.4169 9.57828C12.6376 10.1112 12.6954 10.6977 12.5828 11.2635C12.4703 11.8292 12.1925 12.3489 11.7846 12.7568C11.3767 13.1647 10.857 13.4425 10.2912 13.5551C9.72546 13.6676 9.13901 13.6098 8.60606 13.3891C8.07311 13.1683 7.61759 12.7945 7.2971 12.3149C6.97662 11.8352 6.80556 11.2713 6.80556 10.6944C6.80556 9.9209 7.11285 9.17903 7.65983 8.63205C8.20681 8.08507 8.94867 7.77778 9.72222 7.77778ZM31.1111 28.8361C31.1541 29.3954 30.9735 29.949 30.609 30.3754C30.2446 30.8019 29.7259 31.0664 29.1667 31.1111H5.83333L20.5528 17.85C20.7999 17.6246 21.1224 17.4996 21.4569 17.4996C21.7915 17.4996 22.114 17.6246 22.3611 17.85L31.1111 26.5611V28.8361Z" fill="white"/>
</svg>
