<svg width="37" height="38" viewBox="0 0 37 38" fill="none" xmlns="http://www.w3.org/2000/svg">
<g filter="url(#filter0_d)">
<path d="M32.9026 16.6988C32.9622 16.1412 33 15.5757 33 15.0005C33 14.4252 32.9622 13.8598 32.9017 13.3012L28.7615 11.7779C28.5553 11.0774 28.2849 10.4083 27.9577 9.77238L29.8415 5.67129C29.1559 4.78186 28.3762 3.97461 27.517 3.26463L23.5527 5.21735C22.9348 4.87423 22.2854 4.59566 21.6141 4.38578L20.1426 0.102723C19.6027 0.0401109 19.0561 0 18.5 0C17.9439 0 17.3973 0.0391326 16.8574 0.102723L15.3859 4.38578C14.7088 4.59808 14.062 4.8769 13.4473 5.21735L9.48207 3.26463C8.6215 3.97391 7.84227 4.78102 7.15571 5.67129L9.04327 9.77042C8.71418 10.4063 8.44466 11.0765 8.23945 11.776L4.0993 13.3021C4.03877 13.8598 4 14.4272 4 15.0015C4 15.5757 4.03783 16.1412 4.0993 16.6998L8.23945 18.224C8.44466 18.9235 8.71418 19.5937 9.04327 20.2296L7.15666 24.3307C7.84227 25.2209 8.62245 26.0261 9.48301 26.7354L13.4444 24.7836C14.0591 25.1241 14.7069 25.4039 15.3831 25.6172L16.8564 29.8992C17.3955 29.9609 17.9421 30 18.4991 30C19.0551 30 19.6008 29.9609 20.1407 29.8983L21.6141 25.6152C22.2903 25.4019 22.938 25.1221 23.5527 24.7836L27.517 26.7324C28.3776 26.0232 29.1558 25.216 29.8415 24.3277L27.9567 20.2276C28.2858 19.5947 28.5563 18.9225 28.7624 18.2221L32.9017 16.6988H32.9026ZM18.5 19.7649C17.8951 19.765 17.2961 19.6419 16.7371 19.4025C16.1782 19.1631 15.6704 18.8122 15.2425 18.3698C14.3785 17.4763 13.8929 16.2643 13.8927 15.0005C13.8924 13.7366 14.3775 12.5244 15.2412 11.6306C16.1049 10.7367 17.2764 10.2344 18.4981 10.2341C19.7198 10.2339 20.8915 10.7357 21.7556 11.6292C22.6196 12.5227 23.1052 13.7347 23.1054 14.9985C23.1057 16.2624 22.6206 17.4746 21.7569 18.3684C20.8932 19.2623 19.7217 19.7646 18.5 19.7649Z" fill="white"/>
</g>
<defs>
<filter id="filter0_d" x="0" y="0" width="37" height="38" filterUnits="userSpaceOnUse" color-interpolation-filters="sRGB">
<feFlood flood-opacity="0" result="BackgroundImageFix"/>
<feColorMatrix in="SourceAlpha" type="matrix" values="0 0 0 0 0 0 0 0 0 0 0 0 0 0 0 0 0 0 127 0"/>
<feOffset dy="4"/>
<feGaussianBlur stdDeviation="2"/>
<feColorMatrix type="matrix" values="0 0 0 0 0 0 0 0 0 0 0 0 0 0 0 0 0 0 0.25 0"/>
<feBlend mode="normal" in2="BackgroundImageFix" result="effect1_dropShadow"/>
<feBlend mode="normal" in="SourceGraphic" in2="effect1_dropShadow" result="shape"/>
</filter>
</defs>
</svg>
